{
	"asset":{
		"generator":"Khronos glTF Blender I/O v4.5.51",
		"version":"2.0"
	},
	"scene":0,
	"scenes":[
		{
			"name":"Scene",
			"nodes":[
				34
			]
		}
	],
	"nodes":[
		{
			"name":"lowerlip",
			"rotation":[
				-9.789690835759757e-08,
				-3.3512416743502887e-22,
				2.7018486003819654e-29,
				1
			],
			"translation":[
				-0.00012150199472671375,
				0.25123220682144165,
				0.5690468549728394
			]
		},
		{
			"name":"lowerteeth",
			"rotation":[
				-9.789692967387964e-08,
				-3.3512424316567577e-22,
				2.7018486003819654e-29,
				1
			],
			"translation":[
				-0.00011377200280549005,
				0.2773551344871521,
				0.5420087575912476
			]
		},
		{
			"name":"lteye",
			"rotation":[
				-9.789692967387964e-08,
				2.447423419482675e-08,
				-2.3959521229543514e-15,
				1
			],
			"translation":[
				0.17850498855113983,
				1.0410397052764893,
				-0.6758531332015991
			]
		},
		{
			"name":"ltlowereyelid",
			"rotation":[
				-9.789692967387964e-08,
				1.0656176385737126e-08,
				-1.0432070483878172e-15,
				1
			],
			"translation":[
				0.28196001052856445,
				0.8692899942398071,
				-0.5101190805435181
			]
		},
		{
			"name":"ltsmile",
			"rotation":[
				-9.789692256845228e-08,
				-3.351242179221268e-22,
				2.7018486003819654e-29,
				1
			],
			"translation":[
				0.40229201316833496,
				0.3235131800174713,
				0.49653303623199463
			]
		},
		{
			"name":"ltuppereyelid",
			"rotation":[
				-9.789690835759757e-08,
				2.447423064211307e-08,
				-2.395951275921404e-15,
				1
			],
			"translation":[
				0.33463001251220703,
				1.1783100366592407,
				-0.6288921236991882
			]
		},
		{
			"name":"rteye",
			"rotation":[
				-9.789692967387964e-08,
				2.447423419482675e-08,
				-2.3959521229543514e-15,
				1
			],
			"translation":[
				-0.17619499564170837,
				1.0410397052764893,
				-0.6758531332015991
			]
		},
		{
			"name":"rtlowereyelid",
			"rotation":[
				-9.789692967387964e-08,
				1.0656176385737126e-08,
				-1.0432070483878172e-15,
				1
			],
			"translation":[
				-0.28196001052856445,
				0.8692899942398071,
				-0.5101190805435181
			]
		},
		{
			"name":"rtsmile",
			"rotation":[
				-9.789692256845228e-08,
				-3.351242179221268e-22,
				2.7018486003819654e-29,
				1
			],
			"translation":[
				-0.40253496170043945,
				0.3235131800174713,
				0.49653303623199463
			]
		},
		{
			"name":"rtuppereyelid",
			"rotation":[
				-9.789690835759757e-08,
				2.447423064211307e-08,
				-2.395951275921404e-15,
				1
			],
			"translation":[
				-0.33463001251220703,
				1.1783100366592407,
				-0.6288921236991882
			]
		},
		{
			"name":"upperlip",
			"rotation":[
				-9.789692256845228e-08,
				-3.351242179221268e-22,
				2.7018486003819654e-29,
				1
			],
			"translation":[
				-0.00012150199472671375,
				0.3566592335700989,
				0.5854009389877319
			]
		},
		{
			"name":"upperteeth",
			"rotation":[
				-9.789692967387964e-08,
				-3.3512424316567577e-22,
				2.7018486003819654e-29,
				1
			],
			"translation":[
				-0.00011377200280549005,
				0.3059071898460388,
				0.5560289621353149
			]
		},
		{
			"children":[
				0,
				1,
				2,
				3,
				4,
				5,
				6,
				7,
				8,
				9,
				10,
				11
			],
			"name":"frontRotate",
			"rotation":[
				9.789690125217021e-08,
				-2.9326962192044448e-08,
				2.9640912137539376e-15,
				1
			],
			"translation":[
				-1.1546611489166025e-07,
				0.0002849102020263672,
				1.9686000347137451
			]
		},
		{
			"children":[
				12
			],
			"name":"RearRotate",
			"rotation":[
				4.568609046496968e-23,
				-1.3163408141281252e-08,
				-1.8046903032441436e-15,
				1
			],
			"translation":[
				7.741702034991249e-08,
				-0.11812615394592285,
				-0.9109949469566345
			]
		},
		{
			"name":"wheel_front_l",
			"rotation":[
				1.7108314764868737e-08,
				0,
				0,
				1
			],
			"translation":[
				0.0001361370086669922,
				5.960464477539063e-08,
				0.00034774572122842073
			]
		},
		{
			"children":[
				14
			],
			"name":"ltfrontwheel",
			"rotation":[
				-1.3234889800848443e-23,
				-4.24903703333257e-08,
				0,
				1
			],
			"translation":[
				0.719916820526123,
				-0.11784112453460693,
				1.0576101541519165
			]
		},
		{
			"name":"wheel_back_l",
			"rotation":[
				-1.5326197200238312e-08,
				-3.5491830313415795e-23,
				1.1512531290067233e-22,
				1
			],
			"scale":[
				1,
				0.9999999403953552,
				1
			],
			"translation":[
				0.0001427324314136058,
				0.0002849102020263672,
				-0.0002069889596896246
			]
		},
		{
			"children":[
				16
			],
			"name":"ltrearwheel",
			"rotation":[
				8.881784197001252e-16,
				4.4276490029915294e-08,
				-1.7223604040473824e-23,
				1
			],
			"translation":[
				0.7199100255966187,
				-0.11812615394592285,
				-0.9109948873519897
			]
		},
		{
			"name":"wheel_front_r",
			"rotation":[
				1.7114272665708086e-08,
				0,
				0,
				1
			],
			"translation":[
				0,
				5.960464477539063e-08,
				1.2226809786852755e-08
			]
		},
		{
			"children":[
				18
			],
			"name":"rtfrontwheel",
			"rotation":[
				-1.3234889800848443e-23,
				-4.24903703333257e-08,
				0,
				1
			],
			"translation":[
				-0.7200000882148743,
				-0.11784112453460693,
				1.0576099157333374
			]
		},
		{
			"name":"wheel_back_r",
			"rotation":[
				-1.5326197200238312e-08,
				-3.5491830313415795e-23,
				1.1512531290067233e-22,
				1
			],
			"scale":[
				1,
				0.9999999403953552,
				1
			],
			"translation":[
				0.0036396177019923925,
				0.0002849102020263672,
				-0.00020688059157691896
			]
		},
		{
			"children":[
				20
			],
			"name":"rtrearwheel",
			"rotation":[
				8.881784197001252e-16,
				4.4276490029915294e-08,
				-1.7223604040473824e-23,
				1
			],
			"translation":[
				-0.7199999094009399,
				-0.11812615394592285,
				-0.9109950065612793
			]
		},
		{
			"children":[
				13,
				15,
				17,
				19,
				21
			],
			"name":"mid",
			"rotation":[
				-2.0581562570920632e-16,
				2.5376097667617614e-08,
				-2.6469778023975075e-23,
				1
			],
			"scale":[
				1,
				0.9999999403953552,
				1
			],
			"translation":[
				-5.293955920339377e-23,
				0.47505196928977966,
				0
			]
		},
		{
			"children":[
				22
			],
			"name":"Root",
			"rotation":[
				0,
				1.0025483360881847e-23,
				3.4512664603419266e-31,
				1
			]
		},
		{
			"name":"luigisbody",
			"rotation":[
				0,
				1.0025483360881847e-23,
				3.4512664603419266e-31,
				1
			]
		},
		{
			"children":[
				23,
				24
			],
			"name":"Nw4cRoot",
			"rotation":[
				-8.557136332854043e-09,
				1.7114272665708086e-08,
				-2.928983286277023e-16,
				1
			]
		},
		{
			"mesh":0,
			"name":"Mesh0",
			"skin":0
		},
		{
			"mesh":1,
			"name":"Mesh1",
			"skin":0
		},
		{
			"mesh":2,
			"name":"Mesh2",
			"skin":0
		},
		{
			"mesh":3,
			"name":"Mesh3",
			"skin":0
		},
		{
			"mesh":4,
			"name":"Mesh4",
			"skin":0
		},
		{
			"mesh":5,
			"name":"Mesh5",
			"skin":0
		},
		{
			"mesh":6,
			"name":"Mesh6",
			"skin":0
		},
		{
			"mesh":7,
			"name":"Mesh7",
			"skin":0
		},
		{
			"children":[
				26,
				27,
				28,
				29,
				30,
				31,
				32,
				33,
				25
			],
			"name":"Armature"
		}
	],
	"materials":[
		{
			"name":"L_Wheel",
			"pbrMetallicRoughness":{
				"baseColorTexture":{
					"index":0
				},
				"metallicFactor":0,
				"roughnessFactor":0.5
			}
		},
		{
			"name":"lambert1",
			"pbrMetallicRoughness":{
				"metallicFactor":0,
				"roughnessFactor":0.5
			}
		},
		{
			"name":"luigisBody",
			"pbrMetallicRoughness":{
				"baseColorTexture":{
					"index":1
				},
				"metallicFactor":0,
				"roughnessFactor":0.5
			}
		},
		{
			"alphaMode":"BLEND",
			"name":"Pupil",
			"pbrMetallicRoughness":{
				"baseColorTexture":{
					"index":2
				},
				"metallicFactor":0,
				"roughnessFactor":0.5
			}
		},
		{
			"name":"LuigiDetails",
			"pbrMetallicRoughness":{
				"baseColorTexture":{
					"index":3
				},
				"metallicFactor":0,
				"roughnessFactor":0.5
			}
		}
	],
	"meshes":[
		{
			"name":"Mesh0",
			"primitives":[
				{
					"attributes":{
						"POSITION":0,
						"NORMAL":1,
						"TEXCOORD_0":2,
						"COLOR_0":3,
						"JOINTS_0":4,
						"WEIGHTS_0":5
					},
					"indices":6,
					"material":0
				}
			]
		},
		{
			"name":"Mesh1",
			"primitives":[
				{
					"attributes":{
						"POSITION":8,
						"NORMAL":9,
						"TEXCOORD_0":10,
						"COLOR_0":11,
						"JOINTS_0":12,
						"WEIGHTS_0":13
					},
					"indices":14,
					"material":0
				}
			]
		},
		{
			"name":"Mesh2",
			"primitives":[
				{
					"attributes":{
						"POSITION":15,
						"NORMAL":16,
						"TEXCOORD_0":17,
						"COLOR_0":18,
						"JOINTS_0":19,
						"WEIGHTS_0":20
					},
					"indices":6,
					"material":0
				}
			]
		},
		{
			"name":"Mesh3",
			"primitives":[
				{
					"attributes":{
						"POSITION":21,
						"NORMAL":22,
						"TEXCOORD_0":23,
						"COLOR_0":24,
						"JOINTS_0":25,
						"WEIGHTS_0":26
					},
					"indices":27,
					"material":0
				}
			]
		},
		{
			"name":"Mesh4",
			"primitives":[
				{
					"attributes":{
						"POSITION":28,
						"NORMAL":29,
						"COLOR_0":30,
						"JOINTS_0":31,
						"WEIGHTS_0":32
					},
					"indices":33,
					"material":1
				}
			]
		},
		{
			"name":"Mesh5",
			"primitives":[
				{
					"attributes":{
						"POSITION":34,
						"NORMAL":35,
						"TEXCOORD_0":36,
						"COLOR_0":37,
						"JOINTS_0":38,
						"WEIGHTS_0":39
					},
					"indices":40,
					"material":2
				}
			]
		},
		{
			"name":"Mesh6",
			"primitives":[
				{
					"attributes":{
						"POSITION":41,
						"NORMAL":42,
						"TEXCOORD_0":43,
						"COLOR_0":44,
						"JOINTS_0":45,
						"WEIGHTS_0":46
					},
					"indices":47,
					"material":3
				}
			]
		},
		{
			"name":"Mesh7",
			"primitives":[
				{
					"attributes":{
						"POSITION":48,
						"NORMAL":49,
						"TEXCOORD_0":50,
						"COLOR_0":51,
						"JOINTS_0":52,
						"WEIGHTS_0":53
					},
					"indices":54,
					"material":4
				}
			]
		}
	],
	"textures":[
		{
			"sampler":0,
			"source":0
		},
		{
			"sampler":0,
			"source":1
		},
		{
			"sampler":0,
			"source":2
		},
		{
			"sampler":0,
			"source":3
		}
	],
	"images":[
		{
			"mimeType":"image/png",
			"name":"luigiswheel.png",
			"uri":"luigiswheel.png"
		},
		{
			"mimeType":"image/png",
			"name":"l_body_lod0.png",
			"uri":"l_body_lod0.png"
		},
		{
			"mimeType":"image/png",
			"name":"pupil.png",
			"uri":"pupil.png"
		},
		{
			"mimeType":"image/png",
			"name":"l_details_lod0.png",
			"uri":"l_details_lod0.png"
		}
	],
	"skins":[
		{
			"inverseBindMatrices":7,
			"joints":[
				25,
				23,
				22,
				13,
				12,
				0,
				1,
				2,
				3,
				4,
				5,
				6,
				7,
				8,
				9,
				10,
				11,
				15,
				14,
				17,
				16,
				19,
				18,
				21,
				20,
				24
			],
			"name":"Armature"
		}
	],
	"accessors":[
		{
			"bufferView":0,
			"componentType":5126,
			"count":121,
			"max":[
				0.9005531072616577,
				0.7049970030784607,
				1.4057447910308838
			],
			"min":[
				0.5839001536369324,
				0.009424984455108643,
				0.7101717591285706
			],
			"type":"VEC3"
		},
		{
			"bufferView":1,
			"componentType":5126,
			"count":121,
			"type":"VEC3"
		},
		{
			"bufferView":2,
			"componentType":5126,
			"count":121,
			"type":"VEC2"
		},
		{
			"bufferView":3,
			"componentType":5126,
			"count":121,
			"type":"VEC3"
		},
		{
			"bufferView":4,
			"componentType":5121,
			"count":121,
			"type":"VEC4"
		},
		{
			"bufferView":5,
			"componentType":5126,
			"count":121,
			"type":"VEC4"
		},
		{
			"bufferView":6,
			"componentType":5123,
			"count":282,
			"type":"SCALAR"
		},
		{
			"bufferView":7,
			"componentType":5126,
			"count":26,
			"type":"MAT4"
		},
		{
			"bufferView":8,
			"componentType":5126,
			"count":44,
			"max":[
				0.8628237843513489,
				0.7093709111213684,
				-0.5762779712677002
			],
			"min":[
				0.5772817730903625,
				0.0050508975982666016,
				-1.2461260557174683
			],
			"type":"VEC3"
		},
		{
			"bufferView":9,
			"componentType":5126,
			"count":44,
			"type":"VEC3"
		},
		{
			"bufferView":10,
			"componentType":5126,
			"count":44,
			"type":"VEC2"
		},
		{
			"bufferView":11,
			"componentType":5126,
			"count":44,
			"type":"VEC3"
		},
		{
			"bufferView":12,
			"componentType":5121,
			"count":44,
			"type":"VEC4"
		},
		{
			"bufferView":13,
			"componentType":5126,
			"count":44,
			"type":"VEC4"
		},
		{
			"bufferView":14,
			"componentType":5123,
			"count":120,
			"type":"SCALAR"
		},
		{
			"bufferView":15,
			"componentType":5126,
			"count":121,
			"max":[
				-0.5838470458984375,
				0.7049970030784607,
				1.4053970575332642
			],
			"min":[
				-0.9005000591278076,
				0.009424984455108643,
				0.7098240256309509
			],
			"type":"VEC3"
		},
		{
			"bufferView":16,
			"componentType":5126,
			"count":121,
			"type":"VEC3"
		},
		{
			"bufferView":17,
			"componentType":5126,
			"count":121,
			"type":"VEC2"
		},
		{
			"bufferView":18,
			"componentType":5126,
			"count":121,
			"type":"VEC3"
		},
		{
			"bufferView":19,
			"componentType":5121,
			"count":121,
			"type":"VEC4"
		},
		{
			"bufferView":20,
			"componentType":5126,
			"count":121,
			"type":"VEC4"
		},
		{
			"bufferView":21,
			"componentType":5126,
			"count":74,
			"max":[
				-0.5802074074745178,
				0.7049969434738159,
				-0.5634158849716187
			],
			"min":[
				-0.8525133728981018,
				0.00942489504814148,
				-1.2589879035949707
			],
			"type":"VEC3"
		},
		{
			"bufferView":22,
			"componentType":5126,
			"count":74,
			"type":"VEC3"
		},
		{
			"bufferView":23,
			"componentType":5126,
			"count":74,
			"type":"VEC2"
		},
		{
			"bufferView":24,
			"componentType":5126,
			"count":74,
			"type":"VEC3"
		},
		{
			"bufferView":25,
			"componentType":5121,
			"count":74,
			"type":"VEC4"
		},
		{
			"bufferView":26,
			"componentType":5126,
			"count":74,
			"type":"VEC4"
		},
		{
			"bufferView":27,
			"componentType":5123,
			"count":144,
			"type":"SCALAR"
		},
		{
			"bufferView":28,
			"componentType":5126,
			"count":16,
			"max":[
				0.5842750072479248,
				0.7731699347496033,
				1.471817970275879
			],
			"min":[
				-0.5842750072479248,
				0.22499193251132965,
				-1.3924648761749268
			],
			"type":"VEC3"
		},
		{
			"bufferView":29,
			"componentType":5126,
			"count":16,
			"type":"VEC3"
		},
		{
			"bufferView":30,
			"componentType":5126,
			"count":16,
			"type":"VEC3"
		},
		{
			"bufferView":31,
			"componentType":5121,
			"count":16,
			"type":"VEC4"
		},
		{
			"bufferView":32,
			"componentType":5126,
			"count":16,
			"type":"VEC4"
		},
		{
			"bufferView":33,
			"componentType":5123,
			"count":36,
			"type":"SCALAR"
		},
		{
			"bufferView":34,
			"componentType":5126,
			"count":804,
			"max":[
				0.9055250287055969,
				1.818120002746582,
				1.6453499794006348
			],
			"min":[
				-0.9055250287055969,
				0.2244960069656372,
				-1.5200999975204468
			],
			"type":"VEC3"
		},
		{
			"bufferView":35,
			"componentType":5126,
			"count":804,
			"type":"VEC3"
		},
		{
			"bufferView":36,
			"componentType":5126,
			"count":804,
			"type":"VEC2"
		},
		{
			"bufferView":37,
			"componentType":5126,
			"count":804,
			"type":"VEC3"
		},
		{
			"bufferView":38,
			"componentType":5121,
			"count":804,
			"type":"VEC4"
		},
		{
			"bufferView":39,
			"componentType":5126,
			"count":804,
			"type":"VEC4"
		},
		{
			"bufferView":40,
			"componentType":5123,
			"count":2910,
			"type":"SCALAR"
		},
		{
			"bufferView":41,
			"componentType":5126,
			"count":10,
			"max":[
				0.311257004737854,
				1.512888789176941,
				0.4486944079399109
			],
			"min":[
				-0.30894699692726135,
				1.283612847328186,
				0.3148096203804016
			],
			"type":"VEC3"
		},
		{
			"bufferView":42,
			"componentType":5126,
			"count":10,
			"type":"VEC3"
		},
		{
			"bufferView":43,
			"componentType":5126,
			"count":10,
			"type":"VEC2"
		},
		{
			"bufferView":44,
			"componentType":5126,
			"count":10,
			"type":"VEC3"
		},
		{
			"bufferView":45,
			"componentType":5121,
			"count":10,
			"type":"VEC4"
		},
		{
			"bufferView":46,
			"componentType":5126,
			"count":10,
			"type":"VEC4"
		},
		{
			"bufferView":47,
			"componentType":5123,
			"count":24,
			"type":"SCALAR"
		},
		{
			"bufferView":48,
			"componentType":5126,
			"count":741,
			"max":[
				0.9055250287055969,
				1.9570800065994263,
				1.6453499794006348
			],
			"min":[
				-0.9055250287055969,
				0.2244960069656372,
				-1.5155500173568726
			],
			"type":"VEC3"
		},
		{
			"bufferView":49,
			"componentType":5126,
			"count":741,
			"type":"VEC3"
		},
		{
			"bufferView":50,
			"componentType":5126,
			"count":741,
			"type":"VEC2"
		},
		{
			"bufferView":51,
			"componentType":5126,
			"count":741,
			"type":"VEC3"
		},
		{
			"bufferView":52,
			"componentType":5121,
			"count":741,
			"type":"VEC4"
		},
		{
			"bufferView":53,
			"componentType":5126,
			"count":741,
			"type":"VEC4"
		},
		{
			"bufferView":54,
			"componentType":5123,
			"count":1671,
			"type":"SCALAR"
		}
	],
	"bufferViews":[
		{
			"buffer":0,
			"byteLength":1452,
			"byteOffset":0,
			"target":34962
		},
		{
			"buffer":0,
			"byteLength":1452,
			"byteOffset":1452,
			"target":34962
		},
		{
			"buffer":0,
			"byteLength":968,
			"byteOffset":2904,
			"target":34962
		},
		{
			"buffer":0,
			"byteLength":1452,
			"byteOffset":3872,
			"target":34962
		},
		{
			"buffer":0,
			"byteLength":484,
			"byteOffset":5324,
			"target":34962
		},
		{
			"buffer":0,
			"byteLength":1936,
			"byteOffset":5808,
			"target":34962
		},
		{
			"buffer":0,
			"byteLength":564,
			"byteOffset":7744,
			"target":34963
		},
		{
			"buffer":0,
			"byteLength":1664,
			"byteOffset":8308
		},
		{
			"buffer":0,
			"byteLength":528,
			"byteOffset":9972,
			"target":34962
		},
		{
			"buffer":0,
			"byteLength":528,
			"byteOffset":10500,
			"target":34962
		},
		{
			"buffer":0,
			"byteLength":352,
			"byteOffset":11028,
			"target":34962
		},
		{
			"buffer":0,
			"byteLength":528,
			"byteOffset":11380,
			"target":34962
		},
		{
			"buffer":0,
			"byteLength":176,
			"byteOffset":11908,
			"target":34962
		},
		{
			"buffer":0,
			"byteLength":704,
			"byteOffset":12084,
			"target":34962
		},
		{
			"buffer":0,
			"byteLength":240,
			"byteOffset":12788,
			"target":34963
		},
		{
			"buffer":0,
			"byteLength":1452,
			"byteOffset":13028,
			"target":34962
		},
		{
			"buffer":0,
			"byteLength":1452,
			"byteOffset":14480,
			"target":34962
		},
		{
			"buffer":0,
			"byteLength":968,
			"byteOffset":15932,
			"target":34962
		},
		{
			"buffer":0,
			"byteLength":1452,
			"byteOffset":16900,
			"target":34962
		},
		{
			"buffer":0,
			"byteLength":484,
			"byteOffset":18352,
			"target":34962
		},
		{
			"buffer":0,
			"byteLength":1936,
			"byteOffset":18836,
			"target":34962
		},
		{
			"buffer":0,
			"byteLength":888,
			"byteOffset":20772,
			"target":34962
		},
		{
			"buffer":0,
			"byteLength":888,
			"byteOffset":21660,
			"target":34962
		},
		{
			"buffer":0,
			"byteLength":592,
			"byteOffset":22548,
			"target":34962
		},
		{
			"buffer":0,
			"byteLength":888,
			"byteOffset":23140,
			"target":34962
		},
		{
			"buffer":0,
			"byteLength":296,
			"byteOffset":24028,
			"target":34962
		},
		{
			"buffer":0,
			"byteLength":1184,
			"byteOffset":24324,
			"target":34962
		},
		{
			"buffer":0,
			"byteLength":288,
			"byteOffset":25508,
			"target":34963
		},
		{
			"buffer":0,
			"byteLength":192,
			"byteOffset":25796,
			"target":34962
		},
		{
			"buffer":0,
			"byteLength":192,
			"byteOffset":25988,
			"target":34962
		},
		{
			"buffer":0,
			"byteLength":192,
			"byteOffset":26180,
			"target":34962
		},
		{
			"buffer":0,
			"byteLength":64,
			"byteOffset":26372,
			"target":34962
		},
		{
			"buffer":0,
			"byteLength":256,
			"byteOffset":26436,
			"target":34962
		},
		{
			"buffer":0,
			"byteLength":72,
			"byteOffset":26692,
			"target":34963
		},
		{
			"buffer":0,
			"byteLength":9648,
			"byteOffset":26764,
			"target":34962
		},
		{
			"buffer":0,
			"byteLength":9648,
			"byteOffset":36412,
			"target":34962
		},
		{
			"buffer":0,
			"byteLength":6432,
			"byteOffset":46060,
			"target":34962
		},
		{
			"buffer":0,
			"byteLength":9648,
			"byteOffset":52492,
			"target":34962
		},
		{
			"buffer":0,
			"byteLength":3216,
			"byteOffset":62140,
			"target":34962
		},
		{
			"buffer":0,
			"byteLength":12864,
			"byteOffset":65356,
			"target":34962
		},
		{
			"buffer":0,
			"byteLength":5820,
			"byteOffset":78220,
			"target":34963
		},
		{
			"buffer":0,
			"byteLength":120,
			"byteOffset":84040,
			"target":34962
		},
		{
			"buffer":0,
			"byteLength":120,
			"byteOffset":84160,
			"target":34962
		},
		{
			"buffer":0,
			"byteLength":80,
			"byteOffset":84280,
			"target":34962
		},
		{
			"buffer":0,
			"byteLength":120,
			"byteOffset":84360,
			"target":34962
		},
		{
			"buffer":0,
			"byteLength":40,
			"byteOffset":84480,
			"target":34962
		},
		{
			"buffer":0,
			"byteLength":160,
			"byteOffset":84520,
			"target":34962
		},
		{
			"buffer":0,
			"byteLength":48,
			"byteOffset":84680,
			"target":34963
		},
		{
			"buffer":0,
			"byteLength":8892,
			"byteOffset":84728,
			"target":34962
		},
		{
			"buffer":0,
			"byteLength":8892,
			"byteOffset":93620,
			"target":34962
		},
		{
			"buffer":0,
			"byteLength":5928,
			"byteOffset":102512,
			"target":34962
		},
		{
			"buffer":0,
			"byteLength":8892,
			"byteOffset":108440,
			"target":34962
		},
		{
			"buffer":0,
			"byteLength":2964,
			"byteOffset":117332,
			"target":34962
		},
		{
			"buffer":0,
			"byteLength":11856,
			"byteOffset":120296,
			"target":34962
		},
		{
			"buffer":0,
			"byteLength":3342,
			"byteOffset":132152,
			"target":34963
		}
	],
	"samplers":[
		{
			"magFilter":9729,
			"minFilter":9987
		}
	],
	"buffers":[
		{
			"byteLength":135496,
			"uri":"lod0.bin"
		}
	]
}
